<mxfile host="app.diagrams.net" modified="2023-11-06T13:26:08.025Z" agent="Mozilla/5.0 (Windows NT 10.0; Win64; x64; rv:109.0) Gecko/20100101 Firefox/119.0" etag="HmLIeELHI8eSFxh5ijcf" version="22.0.8" type="github">
  <diagram name="Cafezin" id="WIUjB8BhRdH5edB01tTs">
    <mxGraphModel dx="1434" dy="774" grid="1" gridSize="10" guides="1" tooltips="1" connect="1" arrows="1" fold="1" page="1" pageScale="1" pageWidth="827" pageHeight="1169" math="0" shadow="0">
      <root>
        <mxCell id="0" />
        <mxCell id="1" parent="0" />
        <mxCell id="IT9zG4Bm8k8V94F8Uq2V-1" value="Início" style="ellipse;whiteSpace=wrap;html=1;" vertex="1" parent="1">
          <mxGeometry x="52.5" y="70" width="140" height="100" as="geometry" />
        </mxCell>
        <mxCell id="IT9zG4Bm8k8V94F8Uq2V-2" value="" style="endArrow=classic;html=1;rounded=0;" edge="1" parent="1">
          <mxGeometry width="50" height="50" relative="1" as="geometry">
            <mxPoint x="119.5" y="170" as="sourcePoint" />
            <mxPoint x="119.5" y="230" as="targetPoint" />
          </mxGeometry>
        </mxCell>
        <mxCell id="IT9zG4Bm8k8V94F8Uq2V-3" value="Mostrar o N° de Embalagens de café" style="shape=display;whiteSpace=wrap;html=1;" vertex="1" parent="1">
          <mxGeometry x="40" y="240" width="160" height="90" as="geometry" />
        </mxCell>
        <mxCell id="IT9zG4Bm8k8V94F8Uq2V-4" value="" style="endArrow=classic;html=1;rounded=0;" edge="1" parent="1">
          <mxGeometry width="50" height="50" relative="1" as="geometry">
            <mxPoint x="120" y="340" as="sourcePoint" />
            <mxPoint x="120" y="400" as="targetPoint" />
          </mxGeometry>
        </mxCell>
        <mxCell id="IT9zG4Bm8k8V94F8Uq2V-7" value="Embalagem = E" style="html=1;strokeWidth=2;shape=manualInput;whiteSpace=wrap;rounded=1;size=26;arcSize=11;" vertex="1" parent="1">
          <mxGeometry x="60" y="410" width="140" height="90" as="geometry" />
        </mxCell>
        <mxCell id="IT9zG4Bm8k8V94F8Uq2V-8" value="" style="endArrow=classic;html=1;rounded=0;" edge="1" parent="1">
          <mxGeometry width="50" height="50" relative="1" as="geometry">
            <mxPoint x="120" y="510" as="sourcePoint" />
            <mxPoint x="119.5" y="575" as="targetPoint" />
          </mxGeometry>
        </mxCell>
        <mxCell id="IT9zG4Bm8k8V94F8Uq2V-9" value="Pegar o suporte para Filtro,&amp;nbsp; a Garrafa Térmica e o Filtro de Café" style="rounded=1;whiteSpace=wrap;html=1;absoluteArcSize=1;arcSize=14;strokeWidth=2;" vertex="1" parent="1">
          <mxGeometry x="40" y="600" width="177.5" height="70" as="geometry" />
        </mxCell>
        <mxCell id="IT9zG4Bm8k8V94F8Uq2V-10" value="" style="endArrow=classic;html=1;rounded=0;" edge="1" parent="1">
          <mxGeometry width="50" height="50" relative="1" as="geometry">
            <mxPoint x="120.5" y="690" as="sourcePoint" />
            <mxPoint x="120" y="755" as="targetPoint" />
          </mxGeometry>
        </mxCell>
        <mxCell id="IT9zG4Bm8k8V94F8Uq2V-11" value="Colocar o suporte com o Filtro na Bancada da Cozinha" style="rounded=1;whiteSpace=wrap;html=1;absoluteArcSize=1;arcSize=14;strokeWidth=2;" vertex="1" parent="1">
          <mxGeometry x="52.5" y="770" width="155" height="80" as="geometry" />
        </mxCell>
        <mxCell id="IT9zG4Bm8k8V94F8Uq2V-12" value="" style="endArrow=classic;html=1;rounded=0;" edge="1" parent="1">
          <mxGeometry width="50" height="50" relative="1" as="geometry">
            <mxPoint x="120" y="860" as="sourcePoint" />
            <mxPoint x="119.5" y="925" as="targetPoint" />
          </mxGeometry>
        </mxCell>
        <mxCell id="IT9zG4Bm8k8V94F8Uq2V-13" value="Em um Bule: colocar agua e levar ao fogo" style="rounded=1;whiteSpace=wrap;html=1;absoluteArcSize=1;arcSize=14;strokeWidth=2;" vertex="1" parent="1">
          <mxGeometry x="52.5" y="930" width="155" height="80" as="geometry" />
        </mxCell>
        <mxCell id="IT9zG4Bm8k8V94F8Uq2V-14" value="" style="endArrow=classic;html=1;rounded=0;" edge="1" parent="1">
          <mxGeometry width="50" height="50" relative="1" as="geometry">
            <mxPoint x="122.5" y="1030" as="sourcePoint" />
            <mxPoint x="122" y="1095" as="targetPoint" />
          </mxGeometry>
        </mxCell>
        <mxCell id="IT9zG4Bm8k8V94F8Uq2V-15" value="Colocar a medida do pó de Café no Filtro " style="rounded=1;whiteSpace=wrap;html=1;absoluteArcSize=1;arcSize=14;strokeWidth=2;" vertex="1" parent="1">
          <mxGeometry x="52.5" y="1120" width="155" height="80" as="geometry" />
        </mxCell>
        <mxCell id="IT9zG4Bm8k8V94F8Uq2V-16" value="" style="endArrow=classic;html=1;rounded=0;" edge="1" parent="1">
          <mxGeometry width="50" height="50" relative="1" as="geometry">
            <mxPoint x="220" y="1160" as="sourcePoint" />
            <mxPoint x="260" y="1160" as="targetPoint" />
          </mxGeometry>
        </mxCell>
        <mxCell id="IT9zG4Bm8k8V94F8Uq2V-17" value="&lt;div&gt;Verificar a Fervura da&amp;nbsp;&lt;/div&gt;&lt;div&gt;Água&lt;/div&gt;" style="rounded=1;whiteSpace=wrap;html=1;absoluteArcSize=1;arcSize=14;strokeWidth=2;" vertex="1" parent="1">
          <mxGeometry x="270" y="1120" width="155" height="80" as="geometry" />
        </mxCell>
        <mxCell id="IT9zG4Bm8k8V94F8Uq2V-18" value="" style="endArrow=classic;html=1;rounded=0;" edge="1" parent="1">
          <mxGeometry width="50" height="50" relative="1" as="geometry">
            <mxPoint x="440" y="1168" as="sourcePoint" />
            <mxPoint x="480" y="1168" as="targetPoint" />
          </mxGeometry>
        </mxCell>
        <mxCell id="IT9zG4Bm8k8V94F8Uq2V-19" value="Água Fervida?" style="rhombus;whiteSpace=wrap;html=1;" vertex="1" parent="1">
          <mxGeometry x="490" y="1110" width="120" height="110" as="geometry" />
        </mxCell>
        <mxCell id="IT9zG4Bm8k8V94F8Uq2V-21" value="" style="endArrow=classic;html=1;rounded=0;exitX=0.5;exitY=1;exitDx=0;exitDy=0;" edge="1" parent="1" source="IT9zG4Bm8k8V94F8Uq2V-19">
          <mxGeometry width="50" height="50" relative="1" as="geometry">
            <mxPoint x="550" y="1230" as="sourcePoint" />
            <mxPoint x="549.5" y="1265" as="targetPoint" />
          </mxGeometry>
        </mxCell>
        <mxCell id="IT9zG4Bm8k8V94F8Uq2V-23" value="Não" style="text;html=1;align=center;verticalAlign=middle;resizable=0;points=[];autosize=1;strokeColor=none;fillColor=none;fontSize=15;fontStyle=1" vertex="1" parent="1">
          <mxGeometry x="560" y="1080" width="50" height="30" as="geometry" />
        </mxCell>
        <mxCell id="IT9zG4Bm8k8V94F8Uq2V-24" value="Sim" style="text;html=1;align=center;verticalAlign=middle;resizable=0;points=[];autosize=1;strokeColor=none;fillColor=none;fontSize=15;fontStyle=1" vertex="1" parent="1">
          <mxGeometry x="570" y="1230" width="50" height="30" as="geometry" />
        </mxCell>
        <mxCell id="IT9zG4Bm8k8V94F8Uq2V-25" value="" style="endArrow=none;html=1;rounded=0;" edge="1" parent="1">
          <mxGeometry width="50" height="50" relative="1" as="geometry">
            <mxPoint x="550" y="1110" as="sourcePoint" />
            <mxPoint x="550" y="960" as="targetPoint" />
          </mxGeometry>
        </mxCell>
        <mxCell id="IT9zG4Bm8k8V94F8Uq2V-26" value="" style="endArrow=classic;html=1;rounded=0;entryX=1.029;entryY=0.363;entryDx=0;entryDy=0;entryPerimeter=0;" edge="1" parent="1" target="IT9zG4Bm8k8V94F8Uq2V-13">
          <mxGeometry width="50" height="50" relative="1" as="geometry">
            <mxPoint x="550" y="960" as="sourcePoint" />
            <mxPoint x="600" y="910" as="targetPoint" />
          </mxGeometry>
        </mxCell>
        <mxCell id="IT9zG4Bm8k8V94F8Uq2V-27" value="&lt;div&gt;Em uma xícara, a quantidade de Café que deseja&lt;br&gt;&lt;/div&gt;" style="rounded=1;whiteSpace=wrap;html=1;absoluteArcSize=1;arcSize=14;strokeWidth=2;" vertex="1" parent="1">
          <mxGeometry x="472.5" y="1280" width="155" height="80" as="geometry" />
        </mxCell>
        <mxCell id="IT9zG4Bm8k8V94F8Uq2V-28" value="" style="endArrow=classic;html=1;rounded=0;" edge="1" parent="1">
          <mxGeometry width="50" height="50" relative="1" as="geometry">
            <mxPoint x="550" y="1360" as="sourcePoint" />
            <mxPoint x="549.5" y="1425" as="targetPoint" />
          </mxGeometry>
        </mxCell>
        <mxCell id="IT9zG4Bm8k8V94F8Uq2V-29" value="Pegar o Açúcar na Geladeira" style="rounded=1;whiteSpace=wrap;html=1;absoluteArcSize=1;arcSize=14;strokeWidth=2;" vertex="1" parent="1">
          <mxGeometry x="472.5" y="1440" width="155" height="80" as="geometry" />
        </mxCell>
        <mxCell id="IT9zG4Bm8k8V94F8Uq2V-30" value="" style="endArrow=classic;html=1;rounded=0;" edge="1" parent="1">
          <mxGeometry width="50" height="50" relative="1" as="geometry">
            <mxPoint x="550" y="1520" as="sourcePoint" />
            <mxPoint x="549.5" y="1585" as="targetPoint" />
          </mxGeometry>
        </mxCell>
        <mxCell id="IT9zG4Bm8k8V94F8Uq2V-32" value="Deseja Adicionar Açúcar?" style="rhombus;whiteSpace=wrap;html=1;" vertex="1" parent="1">
          <mxGeometry x="480" y="1600" width="140" height="130" as="geometry" />
        </mxCell>
        <mxCell id="IT9zG4Bm8k8V94F8Uq2V-34" value="" style="endArrow=classic;html=1;rounded=0;exitX=0.5;exitY=1;exitDx=0;exitDy=0;" edge="1" parent="1">
          <mxGeometry width="50" height="50" relative="1" as="geometry">
            <mxPoint x="480" y="1664.5" as="sourcePoint" />
            <mxPoint x="439.5" y="1665" as="targetPoint" />
          </mxGeometry>
        </mxCell>
        <mxCell id="IT9zG4Bm8k8V94F8Uq2V-35" value="Sim" style="text;html=1;align=center;verticalAlign=middle;resizable=0;points=[];autosize=1;strokeColor=none;fillColor=none;fontSize=15;fontStyle=1" vertex="1" parent="1">
          <mxGeometry x="430" y="1620" width="50" height="30" as="geometry" />
        </mxCell>
        <mxCell id="IT9zG4Bm8k8V94F8Uq2V-36" value="Não" style="text;html=1;align=center;verticalAlign=middle;resizable=0;points=[];autosize=1;strokeColor=none;fillColor=none;fontSize=15;fontStyle=1" vertex="1" parent="1">
          <mxGeometry x="620" y="1620" width="50" height="30" as="geometry" />
        </mxCell>
        <mxCell id="IT9zG4Bm8k8V94F8Uq2V-37" value="Adiciona Açúcar na Xícara de Café" style="rounded=1;whiteSpace=wrap;html=1;absoluteArcSize=1;arcSize=14;strokeWidth=2;" vertex="1" parent="1">
          <mxGeometry x="270" y="1625" width="155" height="80" as="geometry" />
        </mxCell>
        <mxCell id="IT9zG4Bm8k8V94F8Uq2V-38" value="" style="endArrow=classic;html=1;rounded=0;" edge="1" parent="1">
          <mxGeometry width="50" height="50" relative="1" as="geometry">
            <mxPoint x="550" y="1730" as="sourcePoint" />
            <mxPoint x="549.5" y="1795" as="targetPoint" />
          </mxGeometry>
        </mxCell>
        <mxCell id="IT9zG4Bm8k8V94F8Uq2V-40" value="Tomar o Café Preparado" style="rounded=1;whiteSpace=wrap;html=1;absoluteArcSize=1;arcSize=14;strokeWidth=2;" vertex="1" parent="1">
          <mxGeometry x="472.5" y="1800" width="155" height="80" as="geometry" />
        </mxCell>
        <mxCell id="IT9zG4Bm8k8V94F8Uq2V-44" value="" style="endArrow=none;html=1;rounded=0;" edge="1" parent="1">
          <mxGeometry width="50" height="50" relative="1" as="geometry">
            <mxPoint x="620" y="1664.5" as="sourcePoint" />
            <mxPoint x="690" y="1670" as="targetPoint" />
          </mxGeometry>
        </mxCell>
        <mxCell id="IT9zG4Bm8k8V94F8Uq2V-45" value="" style="endArrow=none;html=1;rounded=0;" edge="1" parent="1">
          <mxGeometry width="50" height="50" relative="1" as="geometry">
            <mxPoint x="690" y="1840" as="sourcePoint" />
            <mxPoint x="690" y="1670" as="targetPoint" />
          </mxGeometry>
        </mxCell>
        <mxCell id="IT9zG4Bm8k8V94F8Uq2V-46" value="" style="endArrow=classic;html=1;rounded=0;entryX=1;entryY=0.5;entryDx=0;entryDy=0;" edge="1" parent="1" target="IT9zG4Bm8k8V94F8Uq2V-40">
          <mxGeometry width="50" height="50" relative="1" as="geometry">
            <mxPoint x="690" y="1840" as="sourcePoint" />
            <mxPoint x="740" y="1790" as="targetPoint" />
          </mxGeometry>
        </mxCell>
        <mxCell id="IT9zG4Bm8k8V94F8Uq2V-48" value="" style="endArrow=classic;html=1;rounded=0;entryX=0.5;entryY=0;entryDx=0;entryDy=0;" edge="1" parent="1">
          <mxGeometry width="50" height="50" relative="1" as="geometry">
            <mxPoint x="550" y="1890" as="sourcePoint" />
            <mxPoint x="550" y="1980" as="targetPoint" />
          </mxGeometry>
        </mxCell>
        <mxCell id="IT9zG4Bm8k8V94F8Uq2V-49" value="" style="endArrow=none;html=1;rounded=0;" edge="1" parent="1">
          <mxGeometry width="50" height="50" relative="1" as="geometry">
            <mxPoint x="350" y="1870" as="sourcePoint" />
            <mxPoint x="350" y="1705" as="targetPoint" />
          </mxGeometry>
        </mxCell>
        <mxCell id="IT9zG4Bm8k8V94F8Uq2V-50" value="" style="endArrow=classic;html=1;rounded=0;" edge="1" parent="1">
          <mxGeometry width="50" height="50" relative="1" as="geometry">
            <mxPoint x="350" y="1870" as="sourcePoint" />
            <mxPoint x="470" y="1860" as="targetPoint" />
          </mxGeometry>
        </mxCell>
        <mxCell id="IT9zG4Bm8k8V94F8Uq2V-51" value="Final" style="ellipse;whiteSpace=wrap;html=1;" vertex="1" parent="1">
          <mxGeometry x="480" y="1990" width="160" height="120" as="geometry" />
        </mxCell>
      </root>
    </mxGraphModel>
  </diagram>
</mxfile>
